Coordinates
nRows=253
nColumns=2
inDegrees=yes
endheader
time	ankle_angle_r	
2.95613	 19.088745	
2.99174	 19.058228	
3.02736	 19.134521	
3.06298	 18.997192	
3.09859	 18.981934	
3.13421	 19.088745	
3.16982	 19.073486	
3.20544	 18.966675	
3.24106	 19.073486	
3.27667	 18.981934	
3.31229	 19.058228	
3.3479	 19.134521	
3.38352	 19.042969	
3.41914	 19.058228	
3.45475	 19.149780	
3.49037	 19.119263	
3.52598	 19.088745	
3.5616	 19.119263	
3.59722	 19.027710	
3.63283	 19.180298	
3.66845	 19.149780	
3.70406	 19.042969	
3.73968	 19.088745	
3.7753	 19.195557	
3.81091	 19.119263	
3.84653	 19.180298	
3.88214	 19.088745	
3.91776	 19.058228	
3.95338	 19.134521	
3.98899	 19.134521	
4.02461	 19.058228	
4.06022	 19.088745	
4.09584	 19.104004	
4.13146	 19.134521	
4.16707	 19.165039	
4.20269	 19.058228	
4.2383	 19.073486	
4.27392	 19.180298	
4.30954	 19.104004	
4.34515	 19.027710	
4.38077	 19.104004	
4.41638	 19.042969	
4.452	 19.104004	
4.48762	 19.119263	
4.52323	 19.012451	
4.55885	 19.027710	
4.59446	 19.104004	
4.63008	 19.088745	
4.6657	 19.058228	
4.70131	 19.058228	
4.73693	 18.997192	
4.77254	 19.104004	
4.80816	 19.104004	
4.84378	 18.997192	
4.87939	 19.027710	
4.91501	 19.088745	
4.95062	 19.073486	
4.98624	 19.119263	
5.02186	 19.027710	
5.05747	 19.027710	
5.09309	 19.104004	
5.1287	 19.119263	
5.16432	 18.981934	
5.19994	 19.058228	
5.23555	 19.012451	
5.27117	 19.088745	
5.30678	 19.119263	
5.3424	 18.997192	
5.37802	 19.012451	
5.41363	 19.119263	
5.44925	 19.058228	
5.48486	 19.012451	
5.52048	 19.058228	
5.5561	 18.997192	
5.59171	 19.073486	
5.62733	 19.134521	
5.66294	 19.058228	
5.69856	 19.058228	
5.73418	 19.165039	
5.76979	 19.104004	
5.80541	 19.149780	
5.84102	 19.104004	
5.87664	 19.042969	
5.91226	 19.134521	
5.94787	 19.149780	
5.98349	 19.042969	
6.0191	 19.104004	
6.05472	 19.165039	
6.09034	 19.119263	
6.12595	 19.165039	
6.16157	 19.088745	
6.19718	 19.027710	
6.2328	 19.149780	
6.26842	 19.134521	
6.30403	 19.058228	
6.33965	 19.104004	
6.37526	 19.073486	
6.41088	 19.104004	
6.4465	 19.180298	
6.48211	 19.073486	
6.51773	 19.042969	
6.55334	 19.195557	
6.58896	 19.088745	
6.62458	 19.058228	
6.66019	 19.073486	
6.69581	 18.997192	
6.73142	 19.119263	
6.76704	 19.165039	
6.80266	 18.997192	
6.83827	 19.042969	
6.87389	 19.165039	
6.9095	 19.058228	
6.94512	 19.134521	
6.98074	 19.042969	
7.01635	 18.966675	
7.05197	 19.104004	
7.08758	 19.119263	
7.1232	 18.997192	
7.15882	 19.088745	
7.19443	 19.119263	
7.23005	 19.073486	
7.26566	 19.165039	
7.30128	 19.073486	
7.3369	 19.042969	
7.37251	 19.180298	
7.40813	 19.134521	
7.44374	 19.042969	
7.47936	 19.104004	
7.51498	 19.042969	
7.55059	 19.149780	
7.58621	 19.180298	
7.62182	 19.073486	
7.65744	 19.073486	
7.69306	 19.210815	
7.72867	 19.104004	
7.76429	 19.119263	
7.7999	 19.119263	
7.83552	 19.027710	
7.87114	 19.119263	
7.90675	 19.195557	
7.94237	 19.012451	
7.97798	 19.104004	
8.0136	 19.149780	
8.04922	 19.104004	
8.08483	 19.165039	
8.12045	 19.058228	
8.15606	 18.997192	
8.19168	 19.149780	
8.2273	 19.119263	
8.26291	 18.997192	
8.29853	 19.088745	
8.33414	 19.058228	
8.36976	 19.073486	
8.40538	 19.165039	
8.44099	 18.981934	
8.47661	 18.997192	
8.51222	 19.149780	
8.54784	 19.073486	
8.58346	 19.042969	
8.61907	 19.088745	
8.65469	 19.027710	
8.6903	 19.119263	
8.72592	 19.180298	
8.76154	 19.027710	
8.79715	 19.073486	
8.83277	 19.180298	
8.86838	 19.134521	
8.904	 19.149780	
8.93962	 19.104004	
8.97523	 19.027710	
9.01085	 19.149780	
9.04646	 19.149780	
9.08208	 19.027710	
9.1177	 19.119263	
9.15331	 19.134521	
9.18893	 19.104004	
9.22454	 19.210815	
9.26016	 19.042969	
9.29578	 19.042969	
9.33139	 19.195557	
9.36701	 19.134521	
9.40262	 19.042969	
9.43824	 19.104004	
9.47386	 19.073486	
9.50947	 19.134521	
9.54509	 19.149780	
9.5807	 19.058228	
9.61632	 19.058228	
9.65194	 19.165039	
9.68755	 19.058228	
9.72317	 19.073486	
9.75878	 19.058228	
9.7944	 18.997192	
9.83002	 19.134521	
9.86563	 19.134521	
9.90125	 18.997192	
9.93686	 19.042969	
9.97248	 19.134521	
10.0081	 19.058228	
10.0437	 19.149780	
10.0793	 19.042969	
10.1149	 19.012451	
10.1506	 19.165039	
10.1862	 19.165039	
10.2218	 19.027710	
10.2574	 19.104004	
10.293	 19.119263	
10.3286	 19.119263	
10.3643	 19.180298	
10.3999	 19.058228	
10.4355	 19.073486	
10.4711	 19.180298	
10.5067	 19.119263	
10.5423	 19.073486	
10.578	 19.088745	
10.6136	 19.027710	
10.6492	 19.149780	
10.6848	 19.165039	
10.7204	 19.042969	
10.756	 19.104004	
10.7916	 19.165039	
10.8273	 19.134521	
10.8629	 19.119263	
10.8985	 19.104004	
10.9341	 19.027710	
10.9697	 19.134521	
11.0053	 19.149780	
11.041	 19.027710	
11.0766	 19.073486	
11.1122	 19.104004	
11.1478	 19.104004	
11.1834	 19.134521	
11.219	 19.042969	
11.2547	 19.012451	
11.2903	 19.073486	
11.3259	 19.058228	
11.3615	 19.012451	
11.3971	 19.027710	
11.4327	 19.042969	
11.4684	 19.088745	
11.504	 19.149780	
11.5396	 19.058228	
11.5752	 19.027710	
11.6108	 19.180298	
11.6464	 19.119263	
11.682	 19.058228	
11.7177	 19.088745	
11.7533	 19.058228	
11.7889	 19.149780	
11.8245	 19.180298	
11.8601	 19.058228	
11.8957	 19.104004	
11.9314	 19.180298	
